PathFileType	4	(X/Y/Z)	C:/Users/beibeiliu/ov580/test_trc\sequence.7_training_dense_left.trc
DataRate	CameraRate	NumFrames	NumMarkers	Units	OrigDataRate	OrigDataStartFrame	OrigNumFrames
120	120	21	19	mm	120	1	103
Frame#	Time	ThumbCMC			ThumbMCP			ThumbIP			ThumbTip			IndexMCP			IndexPIP			IndexTip			MiddleMCP			MiddlePIP			MiddleTip			RingMCP			RingPIP			RingTip			PinkyMCP			PinkyPIP			PinkyTip			BackHand1			BackHand2			BackHand3	
		X0	Y0	Z0	X1	Y1	Z1	X2	Y2	Z2	X3	Y3	Z3	X4	Y4	Z4	X5	Y5	Z5	X6	Y6	Z6	X7	Y7	Z7	X8	Y8	Z8	X9	Y9	Z9	X10	Y10	Z10	X11	Y11	Z11	X12	Y12	Z12	X13	Y13	Z13	X14	Y14	Z14	X15	Y15	Z15	X16	Y16	Z16	X17	Y17	Z17	X18	Y18	Z18	
0	0	-130.533	12.1795	49.238	-118.831	-5.94808	29.42	-111.52	-16.8625	8.04917	-114.054	-30.0179	-14.2458	-142.594	11.3945	-18.3764	-137.913	0.12997	-39.6924	-134.265	-20.638	-60.7065	-162.953	8.72129	-24.8846	-164.505	-3.08268	-48.8528	-165.812	-23.8493	-67.4287	-180.516	4.81099	-19.5985	-182.71	-3.80645	-37.8759	-183.366	-18.589	-55.5572	-200.671	-1.17931	-4.77205	-202.32	-8.96087	-19.1503	-200.47	-19.3458	-39.0191	-180.627	23.925	22.1651	-181.254	30.9715	52.3667	-155.893	31.8269	34.8489	
1	0.00833333	-133.415	11.5655	45.901	-119.205	-5.08049	26.8281	-118.1	-15.6206	7.05831	-116.257	-29.7586	-14.2549	-144.695	10.6113	-20.9773	-141.208	-2.39316	-44.5154	-137.979	-22.4852	-61.7031	-163.921	7.49617	-28.343	-165.115	-2.39338	-47.8404	-167.408	-25.3981	-67.8858	-186.589	4.50749	-18.1618	-183.481	-5.19984	-38.7698	-184.519	-22.3031	-60.3865	-199.266	-0.499626	-1.84284	-204.51	-11.9462	-24.3058	-205.157	-19.3131	-38.9708	-184.275	22.7006	25.1168	-181.514	31.4895	48.5072	-156.301	30.5234	32.0725	
2	0.0166667	-134.396	10.619	47.9069	-121.594	-5.21323	29.6629	-116.015	-17.656	3.88283	-117.049	-28.133	-10.0161	-140.168	8.75793	-24.1307	-141.989	-2.10508	-42.2444	-134.81	-19.0983	-59.4234	-166.889	8.12806	-25.1032	-165.996	-3.983	-48.4919	-165.192	-24.0387	-67.1329	-182.035	5.29213	-16.615	-184.391	-8.0605	-42.4053	-185.992	-22.5541	-59.1202	-201.75	-0.232686	-3.30438	-205.29	-11.3342	-22.1719	-203.674	-21.1399	-38.0827	-185.604	22.9659	24.4542	-181.315	29.563	48.4887	-158.496	29.9979	34.9047	
3	0.025	-131.66	10.7804	43.271	-122.914	-5.16424	26.5866	-117.722	-16.2908	5.74175	-115.77	-27.6455	-9.39012	-143.528	8.70201	-23.4128	-138.328	-3.00905	-45.294	-140.828	-18.2246	-58.6547	-165.137	8.52451	-23.7852	-167.06	-5.20596	-50.0983	-168.601	-25.0839	-67.218	-182.296	4.99445	-19.1685	-185.644	-7.02711	-41.3016	-184.295	-18.3643	-55.8586	-197.526	0.00779532	-2.13282	-201.823	-8.78475	-22.9456	-205.138	-18.8376	-39.4178	-184.166	21.4388	21.839	-185.605	29.2075	47.4338	-157.492	30.0535	31.9578	
4	0.0333333	-136.239	11.3476	47.4101	-121.842	-4.54475	25.0446	-114.709	-15.5501	7.01138	-114.095	-27.682	-11.8243	-141.058	11.4436	-20.1103	-140.26	1.05765	-41.1529	-136.262	-15.8783	-59.1647	-163.581	8.75959	-29.3304	-164.571	-6.20103	-51.3195	-166.639	-22.4113	-66.7195	-186.951	3.98491	-17.3736	-184.618	-6.71931	-42.5086	-186.021	-21.7586	-58.451	-203.203	-1.22109	-3.45836	-200.848	-7.90373	-21.3265	-205.378	-18.7708	-39.3905	-185.325	23.4037	22.5449	-180.298	30.6241	46.2175	-158.475	29.5554	32.3749	
5	0.0416667	-135.777	12.1413	43.497	-122.735	-3.03506	26.179	-118.013	-14.2338	3.84588	-114.805	-27.2953	-12.7133	-140.297	12.2325	-18.7909	-143.159	-1.31431	-43.8982	-137.287	-15.5545	-58.7384	-167.393	8.43929	-27.6137	-165.526	-2.88201	-49.455	-169.721	-22.8994	-66.7491	-187.596	4.84436	-17.398	-187.927	-6.63077	-41.6313	-188.267	-18.8766	-55.973	-201.109	1.4444	-3.66712	-201.273	-5.93599	-19.6592	-205.23	-18.9695	-37.4791	-181.947	25.0685	25.9404	-182.624	31.02	48.2953	-155.168	31.0055	33.7371	
6	0.05	-133.114	12.55	43.9298	-120.275	-3.72999	25.1934	-118.916	-14.9273	8.41917	-117.231	-25.8644	-11.0593	-144.209	10.7534	-23.4918	-139.623	1.43318	-40.5857	-139.722	-15.3886	-59.0301	-167.979	8.54628	-28.0956	-165.048	-0.946917	-47.6292	-167.637	-22.1271	-69.4399	-182.568	6.59468	-15.8284	-186.552	-4.28974	-39.2377	-184.693	-18.4975	-60.3065	-203.051	0.951144	-3.66229	-203.607	-8.83105	-24.2555	-204.942	-18.4186	-39.5505	-180.46	23.3693	26.5026	-183.87	31.4686	49.8712	-158.288	32.6415	34.7843	
7	0.0583333	-133.51	13.7267	48.7855	-120.828	-3.26523	28.471	-115.692	-14.37	4.13251	-114.187	-26.4271	-11.9746	-143.337	12.5895	-22.3175	-139.251	-0.275587	-44.4625	-140.828	-13.9306	-59.5965	-166.312	9.29628	-27.7649	-166.256	-1.18564	-47.9492	-164.162	-23.1171	-70.7709	-182.641	7.05368	-17.0983	-188.876	-4.67923	-39.266	-187.206	-16.8833	-56.5579	-203.134	1.57144	-6.17573	-202.546	-6.40791	-21.1503	-204.012	-19.7464	-41.5636	-186.148	23.6561	26.6194	-183.985	31.3217	48.1969	-155.678	33.9755	33.9349	
8	0.0666667	-133.904	12.8375	45.9455	-122.079	-3.40239	25.8817	-119.568	-13.6201	6.57476	-118.179	-26.2617	-14.5432	-142.815	13.8158	-20.1073	-140.232	0.623215	-45.3394	-135.179	-16.3235	-62.6991	-165.275	11.5937	-24.8018	-168.467	-2.46318	-50.8943	-166.513	-20.5365	-69.0388	-184.342	7.56755	-18.8624	-187.627	-3.01304	-39.4424	-183.046	-16.9332	-59.2934	-202.72	2.85586	-1.90041	-202.39	-5.18593	-20.5422	-204.865	-17.9045	-40.1869	-183.18	23.819	24.838	-184.406	31.3871	51.201	-157.182	32.0185	35.2882	
9	0.075	-136.194	14.1847	46.3402	-118.05	-2.90964	25.4359	-113.94	-13.1074	6.98324	-118.572	-25.1157	-10.9818	-141.484	14.5503	-22.5017	-142.395	4.19844	-42.7468	-138.64	-13.9494	-61.8507	-163.692	12.8602	-28.6461	-163.881	0.775577	-51.2117	-164.951	-19.6867	-68.5484	-180.912	9.96996	-21.8288	-187.842	-0.622199	-40.13	-183.189	-16.9774	-58.447	-198.059	4.83654	-3.56054	-203.013	-6.51313	-24.5105	-201.325	-18.5052	-40.3913	-186.056	25.6844	24.015	-184.184	32.9327	45.7726	-156.337	33.87	34.8225	
10	0.0833333	-134.023	15.5939	42.5852	-119.996	-0.832853	24.3274	-115.768	-12.0106	3.46424	-115.312	-24.2398	-16.2468	-143.843	14.4206	-25.1088	-139.378	2.67701	-45.1182	-138.817	-20.3721	-61.3667	-164.635	12.8342	-31.9148	-163.758	-0.545087	-51.6637	-166.377	-25.7086	-65.8082	-186.572	9.03951	-21.1579	-185.812	-2.68474	-42.5988	-178.831	-23.8016	-58.2399	-197.834	4.9313	-6.09154	-201.062	-6.89731	-27.143	-196.66	-23.3021	-39.741	-186.005	26.2609	22.5845	-183.644	32.0606	43.3092	-158.692	35.0961	31.8943	
11	0.0916667	-138.5	15.0599	44.7936	-118.213	0.595347	25.1881	-113.092	-8.70376	3.98553	-114.859	-18.9758	-14.4868	-142.579	13.6035	-26.0931	-138.862	-3.53103	-45.9929	-137.454	-26.1947	-52.2666	-163.966	11.0046	-29.6083	-163.46	-9.28789	-51.9005	-158.335	-40.8684	-53.5702	-184.254	6.50478	-20.4233	-179.28	-9.63906	-41.3025	-174.003	-34.5208	-46.1571	-196.133	1.16749	-12.5019	-195.925	-11.9062	-25.9875	-188.014	-36.5473	-32.466	-186.921	26.2888	19.3241	-187.611	32.1661	44.049	-156.92	33.1157	29.7755	
12	0.1	-139.206	17.0593	40.7534	-124.742	2.92007	23.4487	-111.669	-3.94356	3.80913	-106.588	-11.2248	-15.42	-141.72	11.3232	-26.8099	-135.41	-9.14346	-41.6477	-132.722	-33.8149	-36.392	-159.872	5.75167	-30.658	-156.827	-21.1263	-44.5232	-151.894	-46.0156	-31.0435	-183.324	-0.449792	-22.1127	-170.271	-23.716	-35.285	-162.074	-44.5985	-22.2345	-196.98	-5.38727	-8.31151	-189.979	-23.0807	-21.9898	-171.336	-43.3908	-13.3846	-183.104	22.4545	18.1231	-186.242	29.7807	46.4174	-160.595	32.4698	32.2742	
13	0.108333	-136.909	15.6925	45.4671	-119.936	5.87832	22.6283	-110.262	2.65528	2.11354	-103.436	-3.51511	-16.4461	-143.711	8.95511	-22.3763	-134.529	-14.28	-34.7134	-129.023	-37.9827	-12.9371	-157.444	-1.34467	-29.7407	-148.262	-29.1092	-32.2764	-143.799	-43.737	-7.37698	-175.272	-9.02185	-21.779	-164.893	-31.4875	-23.254	-154.217	-42.1245	0.143578	-187.734	-13.482	-11.5481	-176.028	-35.4955	-10.3355	-160.983	-38.3541	8.18787	-183.845	19.6747	18.3391	-186.66	27.9118	44.4878	-161.715	33.9291	34.9196	
14	0.116667	-135.243	18.251	43.9894	-121.009	9.0667	24.4476	-109.871	7.84947	3.23133	-104.079	5.28874	-15.9148	-141.547	4.30267	-23.8506	-132.58	-20.4176	-25.8796	-128.169	-31.7704	1.97109	-154.263	-3.75708	-24.3667	-143.121	-31.775	-21.4971	-142.611	-34.4689	13.4717	-170.449	-14.3122	-17.8497	-157.106	-36.6886	-9.42565	-150.624	-34.0683	15.084	-185.608	-22.2691	-8.62917	-170.945	-37.8113	-1.97433	-158.501	-30.5168	25.0216	-188.331	18.4633	19.592	-185.373	23.5192	43.9359	-163.233	32.1553	31.8575	
15	0.125	-135.644	20.8889	42.6554	-122.102	15.7197	19.8998	-110.998	18.387	-2.79914	-102.87	15.1244	-16.1305	-139.163	6.63278	-22.2364	-127.041	-18.793	-19.5232	-130.194	-23.4915	13.0516	-156.104	-4.89705	-22.0436	-138.746	-31.3251	-10.9442	-140.337	-26.547	18.8991	-169.582	-15.1657	-14.2252	-153.01	-32.7723	-1.66086	-151.906	-24.7465	24.9081	-182.73	-23.54	-5.15418	-164.376	-33.8032	6.22627	-157.766	-19.2634	28.5347	-185.582	17.8898	16.5844	-186.158	23.6616	44.6481	-162.559	35.4174	28.9482	
16	0.133333	-136.204	27.2635	43.4467	-121.56	26.1526	16.9853	-113.994	27.7448	-0.976174	-105.037	30.2247	-20.5615	-141.811	10.8924	-21.1912	-130.711	-16.5652	-13.7092	-130.411	-14.7896	14.4995	-158.076	-2.61801	-19.2814	-142.496	-28.1289	-7.79082	-142.809	-18.5273	22.2408	-165.253	-12.7485	-11.7947	-152.14	-29.8123	5.93245	-153.946	-13.0063	30.9846	-179.107	-21.409	-2.42551	-163.435	-29.6394	10.6497	-160.423	-13.011	29.8364	-187.889	20.4607	20.686	-186.53	27.2397	43.1597	-165.912	37.4106	28.1761	
17	0.141667	-137.229	34.1303	40.1723	-125.042	31.5974	20.5628	-116.186	36.1914	-0.110753	-105.88	41.2285	-17.3379	-142.392	14.7584	-21.8074	-132.068	-12.6616	-12.2508	-131.772	-6.5966	14.8873	-156.661	-4.02431	-20.2267	-140.769	-22.6286	-6.63231	-145.156	-8.32155	25.2485	-168.693	-13.7663	-10.5064	-152.597	-26.6236	6.10265	-151.836	-5.67383	28.0422	-180.335	-17.283	-0.916279	-162.214	-26.4496	15.9108	-160.933	-9.70356	30.838	-188.409	22.7176	18.6176	-189.508	27.1779	43.8533	-169.587	38.8891	29.6585	
18	0.15	-140.274	38.2274	37.6002	-129.71	35.908	19.8704	-119.153	43.7001	-4.4347	-113.588	46.5158	-18.194	-147.214	13.2062	-20.4723	-131.143	-10.6211	-12.4114	-134.948	-2.857	16.7765	-159.601	-2.54298	-18.6796	-141.807	-23.9084	-0.512537	-144.214	-9.94804	24.422	-170.409	-13.9711	-8.0039	-151.311	-26.1815	11.3054	-154.686	-3.39936	31.7601	-180.528	-20.7967	3.14235	-159.152	-24.3149	17.5255	-159.202	-6.55694	31.5543	-189.604	20.3485	21.9617	-191.539	27.1839	48.2113	-172.07	36.3796	30.8577	
19	0.158333	-143.774	35.1318	39.0217	-129.97	38.3443	18.8665	-124.143	43.2745	-1.67708	-115.262	50.3181	-15.4716	-148.885	3.68113	-20.7606	-131.847	-13.1453	-11.43	-134.264	-2.26124	18.2012	-157.925	-11.1649	-15.9627	-136.476	-23.0453	-0.081839	-142.474	-8.59176	26.6779	-166.88	-23.7403	-3.13245	-148.116	-27.2494	12.4117	-152.763	-4.90432	33.4885	-179.927	-27.7972	8.46638	-157.777	-30.9316	22.1532	-160.135	-9.47452	37.4472	-192.528	14.385	22.2155	-188.663	21.6193	52.3019	-170.58	36.883	31.8488	
20	0.166667	-145.151	32.2395	43.0372	-132.763	35.9282	17.1765	-126.854	42.4382	-3.35569	-118.215	49.8384	-16.4294	-150.266	2.28395	-15.9591	-129.678	-17.438	-4.19186	-133.072	-2.3749	22.228	-158.655	-16.3059	-9.28407	-133.099	-26.0962	3.66515	-140.194	-7.6195	30.4861	-165.003	-27.2829	2.81112	-142.491	-29.6835	22.4562	-149.099	-7.81402	35.9635	-173.977	-33.756	14.6251	-153.292	-33.285	28.139	-155.765	-10.2586	39.6261	-189.973	5.53209	27.4411	-188.527	15.6981	51.4767	-175.323	28.5946	31.1721	
